<svg width="30" height="30" viewBox="0 0 30 30" xmlns="http://www.w3.org/2000/svg">
    <path d="M15.382 20.884a1.243 1.243 0 0 0-1.237.016L9.46 23.65l1.835-7.137a7.446 7.446 0 0 0 7.41 0l1.862 7.24-5.185-2.87zM15 5c2.757 0 5 2.242 5 5s-2.243 5-5 5c-2.758 0-5-2.242-5-5s2.242-5 5-5zm8.71 20.939-2.885-11.224A7.465 7.465 0 0 0 22.5 10c0-4.136-3.364-7.5-7.5-7.5-4.135 0-7.5 3.364-7.5 7.5 0 1.786.63 3.425 1.675 4.715L6.29 25.939a1.248 1.248 0 0 0 1.842 1.389l6.663-3.912 7.1 3.928a1.251 1.251 0 0 0 1.816-1.405z" fill="#6574CF" fill-rule="evenodd"/>
</svg>
