<svg width="28" height="28" viewBox="0 0 28 28" xmlns="http://www.w3.org/2000/svg">
    <path d="M7.7 2.334c.303 0 .603.025.894.075.283.046.569.118.846.214.38.132.665.45.754.842l1.597 6.957c.09.384-.022.785-.293 1.069a.932.932 0 0 1-.212.175l-.086.052c-.196.115-.558.305-1.313.7 1.172 2.537 3.208 4.564 5.694 5.697.758-1.448.762-1.452.927-1.612.285-.272.685-.38 1.069-.295l6.958 1.598c.392.09.71.374.841.754a5.336 5.336 0 0 1 .29 1.74 5.373 5.373 0 0 1-5.366 5.367c-9.906 0-17.967-8.06-17.967-17.968A5.372 5.372 0 0 1 7.7 2.334zM15.167 7A5.84 5.84 0 0 1 21 12.833a1.166 1.166 0 1 1-2.333 0c0-1.93-1.57-3.5-3.5-3.5a1.166 1.166 0 1 1 0-2.333zm0-4.667c5.79 0 10.5 4.71 10.5 10.5a1.166 1.166 0 1 1-2.334 0c0-4.502-3.664-8.166-8.166-8.166a1.166 1.166 0 1 1 0-2.334z" fill="#6574CF" fill-rule="evenodd"/>
</svg>
