<svg width="24" height="24" viewBox="0 0 24 24" xmlns="http://www.w3.org/2000/svg">
    <path d="M10.398 1.124c3.229-.499 6.389.52 8.674 2.804 2.285 2.285 3.306 5.447 2.804 8.674-.636 4.077-3.92 7.457-7.988 8.22a10.02 10.02 0 0 1-5.765-.61 1.15 1.15 0 0 0-.643-.089l-4.283.857a1.009 1.009 0 0 1-.903-.274.997.997 0 0 1-.274-.903l.858-4.288c.038-.193.008-.408-.09-.639a10.007 10.007 0 0 1-.61-5.765c.763-4.067 4.143-7.35 8.22-7.987zm7.259 4.218c-1.828-1.828-4.361-2.644-6.951-2.24l-.263.045c-3.137.603-5.707 3.172-6.3 6.333a8.01 8.01 0 0 0 .488 4.617c.253.6.325 1.225.207 1.81l-.563 2.817 2.812-.562c.185-.037.373-.055.563-.055.417 0 .842.088 1.253.262a8.003 8.003 0 0 0 4.617.487c3.249-.609 5.872-3.308 6.379-6.562.404-2.589-.413-5.123-2.242-6.952zM12 10A1 1 0 1 1 12 12a1 1 0 0 1 0-2zm4 0A1 1 0 1 1 16 12a1 1 0 0 1 0-2zm-8 0A1 1 0 1 1 8 12a1 1 0 0 1 0-2z" fill="#C5CEE0" fill-rule="evenodd"/>
</svg>
