<svg width="24" height="24" viewBox="0 0 24 24" xmlns="http://www.w3.org/2000/svg">
    <path d="M5 3a1 1 0 0 1 .117 1.993L5 5H4v4l.007.235a3.987 3.987 0 0 0 1.165 2.593A3.987 3.987 0 0 0 8 13a3.987 3.987 0 0 0 2.828-1.172 3.987 3.987 0 0 0 1.165-2.593L12 9V5h-1a1 1 0 0 1-.117-1.993L11 3h2a1 1 0 0 1 1 1v5a6.002 6.002 0 0 1-5 5.917V16c0 1.105.448 2.105 1.172 2.828A3.987 3.987 0 0 0 13 20h1a3.987 3.987 0 0 0 2.828-1.172A3.987 3.987 0 0 0 18 16v-.17a3.001 3.001 0 1 1 2-.001V16a6 6 0 0 1-6 6h-1a6 6 0 0 1-6-6v-1.083A6.002 6.002 0 0 1 2 9V4a1 1 0 0 1 1-1h2zm14 9a.997.997 0 0 0-1 1 .997.997 0 0 0 1 1 .997.997 0 0 0 1-1 .997.997 0 0 0-1-1z" fill="#C5CEE0" fill-rule="evenodd"/>
</svg>
