<svg width="30" height="30" viewBox="0 0 30 30" xmlns="http://www.w3.org/2000/svg">
    <path d="M15 13.75a1.877 1.877 0 0 1-1.875-1.876c0-1.033.841-1.875 1.875-1.875s1.875.842 1.875 1.875A1.877 1.877 0 0 1 15 13.75m0-6.25a4.38 4.38 0 0 0-4.375 4.375A4.38 4.38 0 0 0 15 16.25a4.38 4.38 0 0 0 4.375-4.375A4.38 4.38 0 0 0 15 7.5m0 17.059c-2.094-1.98-7.5-7.54-7.5-12.155C7.5 8.32 10.864 5 15 5s7.5 3.321 7.5 7.402c0 4.617-5.406 10.176-7.5 12.156M15 2.5c-5.514 0-10 4.441-10 9.902 0 6.844 8.811 14.474 9.186 14.796a1.248 1.248 0 0 0 1.628 0C16.189 26.876 25 19.245 25 12.402 25 6.942 20.514 2.5 15 2.5" fill="#6574CF" fill-rule="evenodd"/>
</svg>
