<svg width="30" height="30" viewBox="0 0 30 30" xmlns="http://www.w3.org/2000/svg">
    <path d="M15 20.063c.198 0 .397.047.578.14l4.711 2.463-.896-5.196a1.248 1.248 0 0 1 .363-1.111l3.795-3.67-5.254-.765a1.248 1.248 0 0 1-.94-.68L14.999 6.5l-2.357 4.743a1.248 1.248 0 0 1-.94.68l-5.254.765 3.795 3.67c.298.288.434.703.363 1.111l-.897 5.196 4.712-2.462a1.26 1.26 0 0 1 .578-.142m6.953 6.132c-.199 0-.398-.046-.579-.142L15 22.722l-6.373 3.33a1.25 1.25 0 0 1-1.81-1.321l1.215-7.035-5.15-4.981a1.248 1.248 0 0 1 .688-2.135l7.127-1.035 3.183-6.407c.423-.85 1.818-.85 2.24 0l3.184 6.407 7.126 1.035a1.248 1.248 0 0 1 .689 2.135l-5.15 4.981 1.215 7.035a1.25 1.25 0 0 1-1.231 1.463" fill="#6574CF" fill-rule="evenodd"/>
</svg>
