<svg width="22" height="22" viewBox="0 0 22 22" xmlns="http://www.w3.org/2000/svg">
    <path d="M18.333 13.383 15.758 11l2.575-2.383v4.766zm-4.583 1.283c0 .506-.41.917-.917.917h-8.25a.917.917 0 0 1-.916-.917V7.333c0-.505.41-.917.916-.917h8.25c.506 0 .917.412.917.917v7.333zm5.511-8.116a1.574 1.574 0 0 0-1.697.28l-1.98 1.834V7.333a2.753 2.753 0 0 0-2.75-2.75h-8.25a2.753 2.753 0 0 0-2.75 2.75v7.333a2.753 2.753 0 0 0 2.75 2.75h8.25a2.753 2.753 0 0 0 2.75-2.75v-1.33l1.98 1.833a1.58 1.58 0 0 0 1.697.281c.558-.244.906-.765.906-1.36V7.91c0-.594-.348-1.116-.906-1.36z" fill="#6574CF" fill-rule="evenodd"/>
</svg>
